# xmcd
#
# Track frame offsets: 
#        9706
#        30958
#        48642
#        68152
#        80583
#
# Disc length: 1357 seconds
#
# Revision: 0
# Processed by: cddbd v1.5.2PL0 Copyright (c) Steve Scherf et al.
# Submitted via: ExactAudioCopyFreeDBPlugin 1.0
#
DISCID=4204cc05
DTITLE=Will Morgan - Built Some
DYEAR=2013
DGENRE=Country
TTITLE0=You Invite Me In Your Room
TTITLE1=Jumper On The Line
TTITLE2=Hold Yourself Gently (featuring Shelly Smith)
TTITLE3=Abilene
TTITLE4=Climbing Your Ladder
EXTD=
EXTT0=
EXTT1=
EXTT2=
EXTT3=
EXTT4=
PLAYORDER=
